<svg width="117" height="38" xmlns="http://www.w3.org/2000/svg">

 <g>
  <title>Layer 1</title>
  <g stroke="null" stroke-width="0">
   <path stroke="null" fill="#2d4f9e" d="m113.12579,9.19913c-1.52947,-8.78242 -27.91763,-11.52314 -58.94182,-6.12181c-13.02909,2.26956 -24.7937,5.61703 -33.9554,9.383c1.40734,0.03081 2.45108,0.35352 3.08528,0.98603c0.49582,0.49638 0.74625,1.17764 0.74625,2.02641l0,0.87118l-3.04214,0l0,-0.76922c0,-0.64092 -0.38433,-1.03814 -1.06503,-1.03814c-0.57201,0 -0.92441,0.25827 -1.03814,0.76698a1.47345,1.47345 0 0 0 0.01233,0.60731c0.3255,1.33058 4.84277,2.15695 5.3341,4.61251c0.06443,0.31598 0.15183,0.9922 0.01401,1.95974c-0.2818,1.98047 -2.02193,2.74465 -4.23714,2.74465c-3.092,0 -4.34807,-1.46448 -4.34807,-3.48361l0.00224,-0.95522l3.26119,0l0.00168,1.18996c0,0.66893 0.48629,1.03814 1.1485,1.03814c0.62748,0 0.99388,-0.25267 1.12049,-0.76922c0.05883,-0.23754 0.0846,-0.5877 -0.02241,-0.8555c-0.60339,-1.51379 -4.82148,-2.22082 -5.34083,-4.66853c-0.11597,-0.55016 -0.1255,-1.01853 -0.02913,-1.61071a3.14074,3.14074 0 0 1 0.27004,-0.84653c-10.16231,4.75257 -16.10708,9.98191 -15.32161,14.49693c1.53115,8.78354 27.91875,11.52146 58.94238,6.12013c13.63751,-2.37376 25.89794,-5.9274 35.22884,-9.90963c-0.13502,0.00672 -0.26612,0.02129 -0.40618,0.02129c-2.12333,0 -4.01921,-0.79555 -4.21585,-2.96594c-0.03474,-0.39497 -0.0409,-0.56025 -0.04202,-0.78547l0.00112,-4.98955c0,-0.21513 0.02521,-0.59274 0.0493,-0.78771c0.25155,-2.09756 1.90988,-2.96258 4.20857,-2.96258c1.77878,0 3.95982,0.51038 4.19961,2.96426c0.03193,0.30814 0.02857,0.637 0.02801,0.74513l0,0.47117l-3.07239,0l0,-0.70311c0,-0.01513 -0.00448,-0.27788 -0.0381,-0.44203c-0.05042,-0.25043 -0.26388,-0.83085 -1.13898,-0.83085c-0.86446,0 -1.08856,0.58154 -1.14458,0.83141c-0.03193,0.13726 -0.04706,0.33447 -0.04706,0.55296l0,5.42262c-0.0028,0.18824 0.00672,0.33559 0.02577,0.44371c0.01513,0.08516 0.17031,0.83253 1.17652,0.83253c0.99892,0 1.15355,-0.74737 1.16755,-0.83253c0.02633,-0.14678 0.02969,-0.32158 0.02857,-0.44371l0,-1.68018l-1.20901,0l0,-1.8096l4.27524,0l0,3.21917c-0.00112,0.21906 -0.00448,0.38097 -0.04146,0.78434c-0.05154,0.56921 -0.23082,1.05102 -0.51207,1.4628c9.89563,-4.69878 15.6572,-9.84353 14.88182,-14.293zm-80.44463,15.56532l-1.55636,-10.57521l-0.05602,0l-1.59614,10.57521l-3.28024,0l2.20625,-11.94277l5.35203,0l2.1928,11.94277l-3.26231,0zm15.77765,0l-0.07227,-10.37072l-0.05266,0l-1.93005,10.37072l-3.07855,0l-1.92052,-10.37072l-0.0549,0l-0.07003,10.37072l-3.05054,0l0.26444,-11.94277l4.90664,0l1.42863,8.8715l0.07003,0l1.43255,-8.8715l4.9044,0l0.26332,11.94277l-3.04046,0zm14.36527,-2.31438c-0.3283,2.31326 -2.5945,2.71775 -4.19624,2.71775c-2.65949,0 -4.30437,-1.13674 -4.30437,-3.45l0.00168,-0.94345l3.22198,0l0.00224,1.1754c0,0.63812 0.44988,1.02861 1.14458,1.02861c0.61963,0 0.98267,-0.24875 1.10873,-0.75969c0.05827,-0.2381 0.08236,-0.58546 -0.02073,-0.84765c-0.59386,-1.48521 -4.7789,-2.21297 -5.2876,-4.62259c-0.11653,-0.54624 -0.12493,-1.01012 -0.02913,-1.59614c0.35408,-2.1844 2.45052,-2.6382 4.13798,-2.6382c1.5093,0 2.60795,0.32942 3.2668,0.98827c0.49134,0.4919 0.74009,1.16699 0.74009,2.0068l0,0.86166l-3.013,0l0,-0.76025c0,-0.65101 -0.40394,-1.02749 -1.05326,-1.02749c-0.57593,0 -0.92441,0.25603 -1.0387,0.75969a1.45104,1.45104 0 0 0 0.01457,0.60058c0.3227,1.32442 4.80019,2.13398 5.2904,4.56657c0.06331,0.31038 0.15015,0.97651 0.01401,1.94013zm11.15898,-1.0852c0.00448,0.2241 -0.01737,0.67174 -0.02969,0.78659c-0.18376,1.96758 -1.5911,2.96762 -4.17215,2.96762c-2.59114,0 -3.9996,-1.00004 -4.18224,-2.96762a9.50009,9.50009 0 0 1 -0.02969,-0.78434l0,-8.54824l3.08247,0l0,8.81772c-0.00336,0.19721 0.00672,0.34287 0.02633,0.44428c0.0381,0.19609 0.23306,0.83253 1.10312,0.83253c0.86726,0 1.06223,-0.637 1.10312,-0.83028c0.01737,-0.10421 0.02801,-0.25715 0.02801,-0.44708l0,-8.81715l3.07071,0l0,8.546zm13.28064,3.278l-4.28924,0l-2.87911,-9.45976l-0.04818,0l0.15967,9.45976l-2.98947,0l0,-11.82119l4.46908,0l2.66117,9.08719l0.06219,0l-0.15743,-9.08719l3.01132,0l0,11.82119z"/>
  </g>
 </g>
</svg>